<?xml version="1.0" encoding="utf-8"?>
<!-- Generator: Adobe Illustrator 24.0.0, SVG Export Plug-In . SVG Version: 6.00 Build 0)  -->
<svg version="1.1" id="Layer_1" xmlns="http://www.w3.org/2000/svg" xmlns:xlink="http://www.w3.org/1999/xlink" x="0px" y="0px"
	 viewBox="0 0 5250 5250" style="enable-background:new 0 0 5250 5250;" xml:space="preserve">
<style type="text/css">
	.st0{display:none;fill:none;}
	.st1{fill:#1072BA;}
	.st2{fill:#00A651;}
	.st3{fill:#00AEEF;}
</style>
<rect x="0" class="st0" width="5250" height="5250"/>
<g>
	<polygon class="st1" points="2333.33,2916.67 2333.33,3500 2333.33,4083.33 2333.33,4666.67 1750,4666.67 1166.67,4666.67 
		583.33,4666.67 583.33,4083.33 583.33,3500 583.33,2916.67 583.33,2333.33 583.33,1750 583.33,1166.67 0,1166.67 0,1750 0,2333.33 
		0,2916.67 0,3500 0,4083.33 0,4666.67 0,5250 583.33,5250 1166.67,5250 1750,5250 2333.33,5250 2916.67,5250 2916.67,4666.67 
		2916.67,4083.33 2916.67,3500 2916.67,2916.67 	"/>
	<polygon class="st2" points="4666.67,4666.67 4083.33,4666.67 4083.33,4083.33 4083.33,3500 4083.33,2916.67 4083.33,2333.33 
		4083.33,1750 4083.33,1166.67 3500,1166.67 3500,1750 2916.67,1750 2333.33,1750 1750,1750 1750,1166.67 1750,583.33 1750,0 
		1166.67,0 583.33,0 0,0 0,583.33 583.33,583.33 1166.67,583.33 1166.67,1166.67 1166.67,1750 1166.67,2333.33 1166.67,2916.67 
		1166.67,3500 1166.67,4083.33 1750,4083.33 1750,3500 1750,2916.67 1750,2333.33 2333.33,2333.33 2916.67,2333.33 3500,2333.33 
		3500,2916.67 3500,3500 3500,4083.33 3500,4666.67 3500,5250 4083.33,5250 4666.67,5250 5250,5250 5250,4666.67 	"/>
	<polygon class="st3" points="4666.67,0 4083.33,0 3500,0 2916.67,0 2333.33,0 2333.33,583.33 2333.33,1166.67 2916.67,1166.67 
		2916.67,583.33 3500,583.33 4083.33,583.33 4666.67,583.33 4666.67,1166.67 4666.67,1750 4666.67,2333.33 4666.67,2916.67 
		4666.67,3500 4666.67,4083.33 5250,4083.33 5250,3500 5250,2916.67 5250,2333.33 5250,1750 5250,1166.67 5250,583.33 5250,0 	"/>
</g>
</svg>
